<?xml version="1.0" encoding="utf-8"?>
<!DOCTYPE svg PUBLIC "-//W3C//DTD SVG 1.1//EN" "http://www.w3.org/Graphics/SVG/1.1/DTD/svg11.dtd">
<svg version="1.1" xmlns="http://www.w3.org/2000/svg" xmlns:xlink="http://www.w3.org/1999/xlink" x="0px" y="0px"
	 width="613.125px" height="154.125px" viewBox="0 0 613.125 154.125" enable-background="new 0 0 613.125 154.125"
	 xml:space="preserve">
<path fill="#060606" d="M41.189,36.607l20.03,37.889L79.959,35.16c2.629-5.47,3.946-9.572,3.946-12.308
	c0-4.236-2.095-7.025-6.277-8.367v-1.447c-0.108,0,1.395,0.134,4.505,0.401c4.129,0.377,7.375,0.563,9.735,0.563
	c1.873,0,5.869-0.321,11.984-0.965v1.447c-3.541,1.503-6.41,3.514-8.605,6.034c-2.252,2.574-5.18,7.669-8.771,15.285L61.22,88.413
	L22.443,14.003c4.878,0,10.7-0.321,17.455-0.965v1.447c-3.106,0.859-4.663,2.789-4.663,5.793
	C35.235,23.55,37.218,28.994,41.189,36.607z"/>
<polygon fill="#060606" points="122.032,6.603 133.292,17.14 129.511,21.163 118.169,10.705 	"/>
<path fill="#060606" d="M122.757,80.126V41.434h6.03v39.899c0,9.762,3.408,14.641,10.216,14.641c2.202,0,3.996-0.429,5.392-1.288
	v1.77c-2.737,2.253-5.74,3.379-9.008,3.379c-3.006,0-5.524-0.913-7.562-2.735c-2.202-1.878-3.569-3.942-4.104-6.195
	C123.076,88.655,122.757,85.063,122.757,80.126z"/>
<path fill="#060606" d="M216.392,112.464c-4.56-3.754-12.44-7.131-23.65-10.136c-7.188-1.877-11.611-3.217-13.275-4.021
	c-1.607-0.751-2.411-1.851-2.411-3.298c0-2.574,2.87-4.263,8.609-5.068c13.352-1.93,20.03-10.136,20.03-24.615
	c0-7.991-2.041-14.105-6.116-18.341c-4.129-4.29-9.279-6.435-15.442-6.435c-6.009,0-11.023,2.199-15.044,6.597
	c-4.075,4.398-6.112,10.375-6.112,17.938c0,11.477,4.261,18.958,12.788,22.444c-9.653,3.754-14.481,8.581-14.481,14.479
	c0,4.827,3.379,8.795,10.137,11.906c-7.884,3.325-11.823,7.346-11.823,12.065c0,4.88,3.028,9.653,9.09,14.32
	c6.059,4.665,13.193,6.999,21.397,6.999c6.704,0,12.171-1.718,16.411-5.149c4.232-3.431,6.353-7.319,6.353-11.664
	c0-4.023-1.904-7.292-5.711-9.814c-3.755-2.36-11.102-5.176-22.042-8.446c-7.508-2.253-12.279-4.183-14.32-5.792
	c-2.037-1.557-3.057-3.514-3.057-5.872c0-4.023,2.709-7.16,8.129-9.413c-2.468,3.004-3.702,5.497-3.702,7.481
	c0,1.932,1.127,3.459,3.379,4.586c2.146,1.126,7.509,2.814,16.089,5.067c9.007,2.305,15.794,5.176,20.35,8.607
	c4.455,3.486,6.679,8.017,6.679,13.595c0,3.914-0.939,7.212-2.815,9.895l0.319,0.241c4.774-3.056,7.159-7.616,7.159-13.674
	C223.307,121.152,221.004,116.326,216.392,112.464z M188.153,119.786c7.242,2.199,12.121,4.102,14.643,5.71
	c2.575,1.717,3.86,3.648,3.86,5.793c0,2.733-1.579,5.067-4.742,6.999c-3.114,1.981-7.031,2.975-11.748,2.975
	c-6.647,0-12.279-1.689-16.892-5.068c-4.56-3.377-6.837-6.972-6.837-10.779c0-3.592,2.895-6.918,8.688-9.974
	C177.535,116.514,181.883,117.961,188.153,119.786z M169.654,65.084c0-6.595,1.417-11.556,4.266-14.881
	c2.841-3.218,6.406-4.826,10.696-4.826c4.129,0,7.591,1.637,10.378,4.907c2.733,3.271,4.1,8.179,4.1,14.722
	c0,6.167-1.313,10.887-3.938,14.157c-2.683,3.327-6.249,4.988-10.7,4.988C174.587,84.149,169.654,77.795,169.654,65.084z"/>
<polygon fill="#060606" points="264.494,6.603 275.758,17.14 271.977,21.163 260.635,10.705 	"/>
<path fill="#060606" d="M265.219,80.126V41.434h6.034v39.899c0,9.762,3.407,14.641,10.216,14.641c2.199,0,3.996-0.429,5.388-1.288
	v1.77c-2.733,2.253-5.739,3.379-9.007,3.379c-3.003,0-5.524-0.913-7.563-2.735c-2.198-1.878-3.568-3.942-4.104-6.195
	C265.542,88.655,265.219,85.063,265.219,80.126z"/>
<path fill="#060606" d="M332.628,95.734l0.401,1.688c-2.518,1.983-5.334,2.977-8.443,2.977c-4.398,0-7.641-1.689-9.735-5.068
	c-2.088-3.326-3.136-8.98-3.136-16.973V1.535c3.218-0.106,5.496-0.241,6.838-0.402c-0.589,9.17-0.883,15.767-0.883,19.788v53.896
	c0,6.597,0.158,11.102,0.48,13.515c0.323,2.468,1.313,4.453,2.978,5.953c1.606,1.609,3.859,2.414,6.758,2.414
	C329.439,96.699,331.021,96.376,332.628,95.734z"/>
<path fill="#060606" d="M366.175,40.55c-4.613,0-9.062,1.045-13.354,3.137c-4.291,2.201-7.43,4.988-9.409,8.367l2.009,1.93
	c4.936-5.417,10.99-8.125,18.18-8.125c4.612,0,7.723,1.074,9.333,3.217c1.554,2.201,2.332,5.229,2.332,9.09v8.527
	c-1.822-0.483-3.648-0.723-5.471-0.723c-5.739,0-10.323,1.717-13.757,5.147c-3.536,3.433-5.309,7.562-5.309,12.388
	c0,4.183,1.449,7.937,4.344,11.262c2.845,3.327,6.382,4.988,10.622,4.988c3.698,0,6.887-1.42,9.57-4.263l-0.244,4.263
	c1.665-0.536,3.73-0.857,6.198-0.965V56.959C381.219,46.02,376.201,40.55,366.175,40.55z M375.265,92.113
	c-2.468,1.824-4.986,2.735-7.562,2.735c-2.898,0-5.363-1.126-7.4-3.379c-1.984-2.143-2.978-4.746-2.978-7.802
	c0-3.379,1.181-6.382,3.54-9.009c2.361-2.575,5.657-3.861,9.894-3.861c1.234,0,2.733,0.107,4.506,0.321V92.113z"/>
<path fill="#060606" d="M523.197,46.583c-4.556-4.558-10.324-6.839-17.297-6.839c-7.505,0-13.405,2.575-17.695,7.723
	c-4.236,5.096-6.354,12.844-6.354,23.249c0,10.083,2.332,17.508,6.995,22.283c4.613,4.827,10.216,7.239,16.816,7.239
	c6.436,0,12.117-2.305,17.054-6.917c4.878-4.558,7.317-12.602,7.317-24.132C530.034,58.677,527.753,51.141,523.197,46.583z
		M518.533,89.137c-3.221,3.648-7.432,5.47-12.633,5.47c-5.521,0-9.786-1.743-12.789-5.23c-3.002-3.485-4.505-10.135-4.505-19.95
	c0-16.409,5.765-24.615,17.294-24.615c11.586,0,17.375,8.125,17.375,24.375C523.275,78.84,521.697,85.491,518.533,89.137z"/>
<path fill="#060606" d="M572.348,98.79V41.434c1.771-0.052,3.914-0.348,6.436-0.884c-0.323,2.091-0.538,5.684-0.646,10.779
	c5.633-7.187,9.657-10.779,12.067-10.779c1.396,0,3.972,0.778,7.727,2.333c3.269,1.396,5.496,2.091,6.673,2.091
	c1.557,0,3.3-1.1,5.229-3.298c0.161-0.162,0.269-0.282,0.323-0.362c0.05-0.081,0.294-0.334,0.725-0.764l1.851,0.884
	c-2.575,5.793-5.904,8.688-9.976,8.688c-1.396,0-4.104-0.884-8.125-2.655c-1.664-0.751-2.924-1.126-3.781-1.126
	c-2.575,0-5.309,1.663-8.207,4.988c1.396-0.429,2.576-0.644,3.541-0.644c1.503,0,4.265,0.913,8.286,2.735
	c2.895,1.234,4.989,1.851,6.273,1.851c0.857,0,1.743-0.269,2.654-0.806c-2.626,3.379-5.176,5.069-7.641,5.069
	c-1.126,0-2.978-0.617-5.553-1.851c-3.698-1.822-6.273-2.735-7.72-2.735c-1.449,0-2.898,0.779-4.348,2.333v24.454
	c0,5.47,0.891,9.466,2.655,11.986c1.771,2.521,4.612,4.05,8.53,4.586v1.447C583.045,99.111,577.388,98.79,572.348,98.79z"/>
<path fill="#060606" d="M434.871,24.623v17.938h13.757c2.519,0,4.423-0.268,5.711-0.804c1.396-0.59,3.003-1.797,4.828-3.621h2.009
	c-3.271,4.559-5.604,7.375-6.998,8.448c-1.338,1.019-3.376,1.528-6.113,1.528h-13.193V78.84c0,4.558,0.24,7.696,0.725,9.411
	c0.428,1.663,1.475,3.112,3.139,4.344c1.658,1.18,3.993,1.77,6.995,1.77c5.955,0,11.103-2.787,15.446-8.365l1.689,0.965
	c-4.397,8.526-10.779,12.79-19.145,12.79c-3.594,0-6.597-0.803-9.011-2.412c-2.468-1.609-4.104-3.648-4.907-6.114
	c-0.803-2.52-1.205-6.141-1.205-10.86V31.942C430.851,29.582,432.941,27.143,434.871,24.623z"/>
<path fill="#FFEE9C" d="M15.929,14.003l42.314,80.764l-2.816,5.793h-1.288L18.103,32.104C12.736,21.807,6.972,15.935,0.806,14.486
	v-1.447L15.929,14.003z"/>
<polygon fill="#FFEE9C" points="114.553,14.647 125.896,25.185 122.032,29.208 110.772,18.749 	"/>
<path fill="#FFEE9C" d="M111.414,78.76V41.434h6.03v40.142c0,5.899,0.592,10.108,1.772,12.628c1.126,2.627,3.006,4.505,5.632,5.632
	h-2.497c-3.591-1.609-6.328-3.862-8.2-6.758C112.325,90.237,111.414,85.464,111.414,78.76z"/>
<path fill="#FFEE9C" d="M163.94,44.813c-4.232,5.901-6.353,12.709-6.353,20.432c0,6.705,1.553,12.684,4.667,17.939
	c-3.329-0.806-6.034-3.004-8.129-6.597c-2.145-3.485-3.214-7.241-3.214-11.262c0-4.934,1.255-9.223,3.781-12.871
	C157.211,48.863,160.296,46.314,163.94,44.813z"/>
<path fill="#FFEE9C" d="M154.209,130.967c-0.915,1.661-1.367,3.11-1.367,4.344c0,4.396,1.876,8.554,5.632,12.469
	c3.698,3.914,8.982,5.872,15.848,5.872c2.892,0,5.711-0.456,8.444-1.367C168.769,148.906,159.248,141.798,154.209,130.967z"/>
<path fill="#FFEE9C" d="M154.209,130.967c5.039,10.831,14.56,17.939,28.557,21.318c-2.733,0.911-5.553,1.367-8.444,1.367
	c-6.865,0-12.149-1.958-15.848-5.872c-3.756-3.915-5.632-8.073-5.632-12.469C152.842,134.077,153.294,132.627,154.209,130.967z"/>
<path fill="#FFEE9C" d="M238.596,40.952l2.088,0.402c-0.696,6.65-3.003,9.976-6.916,9.976c-1.88,0-4.291-0.777-7.239-2.333
	c-2.791-1.5-4.965-2.252-6.518-2.252c-2.895,0-5.147,1.235-6.755,3.702l0.237,0.482c1.126-0.43,1.958-0.644,2.496-0.644
	c1.607,0,4.046,1.126,7.317,3.379c2.522,1.663,4.962,2.493,7.322,2.493c1.718,0,3.188-0.428,4.423-1.288l0.646,0.886
	c-2.253,2.948-4.828,4.424-7.724,4.424c-2.041,0-4.53-1.099-7.479-3.298c-2.146-1.663-3.946-2.708-5.392-3.139
	c1.769,3.916,2.654,7.671,2.654,11.264c0,9.866-3.971,16.357-11.905,19.465c3.429-5.199,5.15-11.635,5.15-19.306
	c0-9.061-2.417-16.517-7.242-22.362c3.325,1.34,5.739,2.949,7.242,4.827c3.269-4.236,6.647-6.354,10.134-6.354
	c1.876,0,4.129,0.723,6.755,2.172c2.791,1.501,4.8,2.251,6.033,2.251C235.963,45.697,237.52,44.117,238.596,40.952z"/>
<polygon fill="#FFEE9C" points="257.012,14.647 268.354,25.185 264.494,29.208 253.23,18.749 	"/>
<path fill="#FFEE9C" d="M253.877,78.76V41.434h6.033v40.142c0,5.899,0.588,10.108,1.771,12.628
	c1.127,2.627,2.999,4.505,5.629,5.632h-2.493c-3.595-1.609-6.328-3.862-8.208-6.758C254.788,90.237,253.877,85.464,253.877,78.76z"
	/>
<path fill="#FFEE9C" d="M306.406,1.535v76.743c0,7.292,0.401,12.067,1.205,14.318c0.804,2.307,2.095,4.586,3.859,6.839
	c-2.948-0.857-5.226-2.226-6.837-4.104c-1.606-1.769-2.704-4.154-3.296-7.158c-0.535-2.682-0.804-7.454-0.804-14.32V19.956
	c0-4.878-0.19-8.177-0.563-9.893c-0.43-1.932-1.396-3.648-2.898-5.149c-1.499-1.501-3.458-2.466-5.868-2.896V0.65
	c1.657,0,4.208,0.161,7.641,0.482C300.56,1.294,303.077,1.429,306.406,1.535z"/>
<path fill="#FFEE9C" d="M350.248,69.428c-3.379,4.236-5.068,8.876-5.068,13.918c0,5.951,2.091,10.832,6.273,14.639
	c-3.271-0.75-6.166-2.385-8.688-4.907c-2.626-2.464-3.942-5.682-3.942-9.653C338.823,76.507,342.629,71.842,350.248,69.428z"/>
<path fill="#FFEE9C" d="M401.971,99.755l-15.442-0.965V57.04c0-4.234-0.402-7.346-1.209-9.33c-0.915-2.039-2.493-3.781-4.746-5.23
	c4.663,0.913,7.831,2.576,9.491,4.988c1.665,2.468,2.497,6.891,2.497,13.272v24.857c0,4.236,0.589,7.268,1.769,9.09
	c1.123,1.824,3.67,3.031,7.641,3.621V99.755z"/>
<path fill="#FFEE9C" d="M417.578,78.035V48.111h-5.151v-0.644l11.103-10.537v45.853c0,5.255,0.51,8.901,1.527,10.939
	c1.02,2.091,2.415,3.648,4.187,4.667c-4.397-0.323-7.458-1.932-9.172-4.826C418.41,90.719,417.578,85.545,417.578,78.035z"/>
<path fill="#FFEE9C" d="M483.861,45.457c-4.986,5.524-7.483,13.674-7.483,24.453s2.497,19.039,7.483,24.776
	c-9.277-5.255-13.918-13.62-13.918-25.097C469.943,58.275,474.584,50.231,483.861,45.457z"/>
<path fill="#FFEE9C" d="M528.104,93.802c4.936-5.522,7.399-13.191,7.399-23.006c0-5.309-0.592-10.297-1.768-14.962
	c-1.234-4.774-3.11-8.257-5.632-10.458c9.384,5.201,14.075,13.191,14.075,23.971C542.18,79.698,537.488,87.85,528.104,93.802z"/>
<path fill="#FFEE9C" d="M566.559,41.434V98.79c-7.885,0.108-13.223,0.429-16.01,0.965v-1.447c4.344-1.555,7.131-3.459,8.365-5.712
	c1.287-2.358,1.93-6.568,1.93-12.628V59.212c0-5.738-0.75-9.84-2.249-12.308c-1.557-2.52-4.24-4.183-8.046-4.988V40.55
	C552.21,40.871,557.547,41.167,566.559,41.434z"/>
</svg>
