<?xml version="1.0" encoding="utf-8"?>
<!DOCTYPE svg PUBLIC "-//W3C//DTD SVG 1.1//EN" "http://www.w3.org/Graphics/SVG/1.1/DTD/svg11.dtd">
<svg version="1.1" xmlns="http://www.w3.org/2000/svg" xmlns:xlink="http://www.w3.org/1999/xlink" x="0px"
	 y="0px" width="436.667px" height="435px" viewBox="0 0 436.667 435" enable-background="new 0 0 436.667 435"
	 xml:space="preserve">
<path fill="#FFEE9C" d="M218.026,11.307c115.185,0,208.551,92.84,208.551,207.365c0,114.519-93.366,207.361-208.551,207.361
	c-115.178,0-208.548-92.842-208.548-207.361C9.479,104.147,102.849,11.307,218.026,11.307z"/>
<path fill="#FFCEBA" d="M154.71,213.918c0,0-20.179-38.188-7.912-42.737c11.675,0.987,11.675,0.987,11.675,0.987
	s6.53-16.224,28.491-17.608s83.694-3.362,83.694-3.362s-3.36,13.652-3.559,23.346c3.559,8.312,26.51,36.409-32.651,84.883
	c-7.117-4.154-10.483-11.476-14.243-9.893c-3.76,1.583-13.653,13.854-21.766,5.54C190.327,246.765,154.71,213.918,154.71,213.918z"
	/>
<path fill="#FFCEBA" d="M155.704,243.399l-10.883,46.103l71.032,48.078l60.351-48.475l-11.277-26.318
	c0,0-15.438,27.703-47.888,28.69c-20.381-4.943-51.049-21.964-53.818-46.301c-2.574-4.546-3.956-7.316-3.956-7.316L155.704,243.399z
	"/>
<path fill="#B54E08" d="M165.593,223.22c0,0-8.604,30.276,11.28,46.894c14.246,10.982,33.239,21.669,40.66,21.073
	c7.421-0.596,32.943-2.077,49.267-36.8c-1.187-19.592-0.891-25.824-0.891-25.824s-21.067,27.6-34.422,31.164
	c-7.719-7.719-10.985-11.283-10.985-11.283s-7.418,9.796-18.698,10.688C193.789,250.823,165.593,223.22,165.593,223.22z"/>
<path fill="#E59D1F" d="M273.826,19.619c0,0,27.106,3.76,43.333,17.807c-6.526,11.28-37.396,69.452-37.396,69.452
	s-12.662-7.915-24.138-9.697C257.406,89.465,273.826,19.619,273.826,19.619z"/>
<path fill="#E59D1F" d="M121.869,35.646c0,0,17.214-13.457,42.144-14.643c4.155,12.861,13.852,48.478,13.852,48.478
	s-16.621,7.521-27.305,15.63C141.852,71.854,121.869,35.646,121.869,35.646z"/>
<path fill="#E59D1F" d="M117.516,117.559L68.644,75.415c0,0-25.454,22.925-24.933,33.043c0.397,7.716,60.351,36.8,60.351,36.8
	L117.516,117.559z"/>
<circle fill="#E59D1F" cx="74.577" cy="173.749" r="17.015"/>
<path fill="#E59D1F" d="M74.577,230.117c8.854,0,16.028,7.177,16.028,16.028c0,8.857-7.174,16.028-16.028,16.028
	c-8.851,0-16.025-7.171-16.025-16.028C58.552,237.294,65.727,230.117,74.577,230.117z"/>
<path fill="#E59D1F" d="M361.876,228.528c9.29,0,16.816,7.532,16.816,16.816c0,9.29-7.526,16.816-16.816,16.816
	s-16.816-7.526-16.816-16.816C345.06,236.06,352.586,228.528,361.876,228.528z"/>
<circle fill="#E59D1F" cx="361.876" cy="174.113" r="15.829"/>
<path fill="#FC7777" d="M336.943,51.268c0,0-13.06,19.391,2.77,27.109c16.624,5.54,29.484-1.782,29.484-1.782L336.943,51.268z"/>
<polygon fill="#FC7777" points="195.767,16.057 203.585,62.355 237.417,62.355 246.322,14.474 "/>
<path fill="#FC7777" d="M67.849,76.604c0,0,22.558,14.444,35.614,0.199c13.059-14.246,0.397-29.879,0.397-29.879L67.849,76.604z"/>
<polygon fill="#FC7777" points="132.947,367.659 120.68,358.362 103.267,368.058 61.518,318.788 46.679,332.642 85.854,377.552 
	91.595,377.751 124.241,397.733 "/>
<polygon fill="#FC7777" points="155.306,410.794 169.748,395.759 183.005,410.601 177.271,418.712 "/>
<polygon fill="#FC7777" points="316.761,398.528 302.317,385.47 316.568,373.198 327.846,389.425 "/>
<polygon fill="#FC7777" points="359.504,366.075 341.693,351.042 362.074,332.046 333.186,302.76 344.066,299.196 387.398,332.642 
	"/>
<polygon fill="#4A454C" points="291.238,408.013 288.27,397.927 296.976,389.812 309.445,399.306 "/>
<polygon fill="#828282" points="103.863,367.058 120.089,353.401 84.87,302.555 64.291,316.795 "/>
<polygon fill="#828282" points="282.134,399.106 206.553,345.876 279.365,289.881 306.471,289.092 292.226,310.262 335.167,351.614 
	293.809,389.806 288.469,401.679 "/>
<path fill="#828282" d="M106.037,239.064c0,0-21.763-80.53,14.249-122.677c21.567-28.292,44.125-59.556,118.522-52.036
	c-2.775,18.202-7.129,41.551-7.129,41.551s38.986,12.665,39.576,44.323c-16.618,0.792-82.508,3.757-82.508,3.757
	s-19.589,0.991-29.68,19.589c-15.631-4.549-15.631-4.549-15.631-4.549s-9.299,21.369,10.88,45.904
	C143.039,220.86,106.037,239.064,106.037,239.064z"/>
<polyline fill="none" stroke="#0C0600" stroke-width="9.4975" stroke-miterlimit="10" points="121.471,35.848 149.962,84.521 
	166.189,107.473 "/>
<polyline fill="none" stroke="#0C0600" stroke-width="9.4975" stroke-miterlimit="10" points="163.813,18.83 178.851,69.484 
	176.082,70.67 183.204,97.581 "/>
<polyline fill="none" stroke="#0C0600" stroke-width="9.4975" stroke-miterlimit="10" points="195.078,14.874 202.992,62.756 
	202.001,63.746 204.181,91.253 "/>
<path fill="none" stroke="#0C0600" stroke-width="9.4975" stroke-miterlimit="10" d="M246.521,12.707l-14.835,92.602
	c0,0-27.657-11.048-61.938,17c-11.672,10.106-27.6,28.196-27.898,63.96c0,0,0.891,18.993,17.66,30.273
	c7.273-13.803,18.849-46.449-14.688-47.042"/>
<polyline fill="none" stroke="#0C0600" stroke-width="9.4975" stroke-miterlimit="10" points="102.478,45.752 132.751,99.77 
	130.873,101.648 151.151,122.523 "/>
<path fill="none" stroke="#0C0600" stroke-width="10.6847" stroke-miterlimit="10" d="M103.863,46.737
	c0,0,17.015,18.006-1.189,31.658c-18.201,13.656-36.21-3.956-36.21-3.956"/>
<line fill="none" stroke="#0C0600" stroke-width="9.4975" stroke-miterlimit="10" x1="117.317" y1="118.167" x2="68.246" y2="74.439"/>
<line fill="none" stroke="#0C0600" stroke-width="9.4975" stroke-miterlimit="10" x1="115.733" y1="123.507" x2="139.278" y2="137.355"/>
<line fill="none" stroke="#0C0600" stroke-width="9.4975" stroke-miterlimit="10" x1="104.851" y1="147.446" x2="41.335" y2="110.249"/>
<line fill="none" stroke="#0C0600" stroke-width="9.4975" stroke-miterlimit="10" x1="127.408" y1="160.702" x2="105.049" y2="150.216"/>
<line fill="none" stroke="#0C0600" stroke-width="9.4975" stroke-miterlimit="10" x1="124.244" y1="178.707" x2="100.302" y2="178.906"/>
<line fill="none" stroke="#0C0600" stroke-width="9.4975" stroke-miterlimit="10" x1="126.417" y1="208.183" x2="100.5" y2="209.568"/>
<path fill="none" stroke="#0C0600" stroke-width="9.4975" stroke-miterlimit="10" d="M154.12,213.719c0,0-22.359,9.498-46.5,26.911
	c-2.372-0.988-2.372-0.988-2.372-0.988s-17.413-65.496,5.934-106.652c10.883-20.182,16.227-39.769,65.691-63.711
	c10.091-3.164,31.065-8.703,61.14-5.934"/>
<path fill="none" stroke="#0C0600" stroke-width="9.4975" stroke-miterlimit="10" d="M233.858,90.847c0,0-52.437-12.47-90.82,40.755
	c-7.322,11.082-17.413,27.305-17.81,57.38c2.574,22.362,2.968,31.068,8.706,36.015"/>
<path fill="none" stroke="#0C0600" stroke-width="9.4975" stroke-miterlimit="10" d="M159.289,173.357
	c0,0,6.677-21.961,48.228-22.184c41.551-0.223,62.847-1.412,62.847-1.412c0.295-33.242-40.364-44.965-40.364-44.965"/>
<path fill="none" stroke="#0C0600" stroke-width="9.4975" stroke-miterlimit="10" d="M269.473,142.013
	c0,0,3.763,10.188-1.975,31.261c0,0,17.407,29.758-3.462,54.983c-10.097,13.649-24.048,31.652-31.562,33.531
	c-5.045-5.142-12.662-14.836-12.662-14.836s-13.258,18.4-22.855,6.726c-9.598-11.675,6.828-24.831,19.983-25.029
	c13.162-0.199,20.875,5.341,31.165,18.105"/>
<path fill="none" stroke="#0A0500" stroke-width="9.4975" stroke-miterlimit="10" d="M225.251,254.665
	c0,0,23.244,9.104,19.089-13.752"/>
<path fill="#0C0600" stroke="#0C0600" stroke-width="1.1872" stroke-miterlimit="10" d="M211.698,241.442
	c0,0,9.793-4.052,14.342-0.451c0.1,3.708,0.199,11.584,3.363,12.487c-10.681-2.818-12.265-3.492-16.124-0.452
	c-2.571,0-3.167-0.566-3.167-0.566S215.061,244.591,211.698,241.442z"/>
<path fill="none" stroke="#0C0600" stroke-width="9.4975" stroke-miterlimit="10" d="M232.721,257.386
	c0,0-1.807,15.853,0.867,31.183c6.828-1.481,25.198-14.818,33.507-28.076c0-13.059,0-35.49,0-35.49"/>
<path fill="none" stroke="#0C0600" stroke-width="9.4975" stroke-miterlimit="10" d="M234.846,287.804
	c0,0-18.993,7.322-31.658,0.494c-12.565-7.123-29.879-20.483-37.197-30.87c-1.978-10.88-5.344-36.385-3.266-43.806
	c7.818,10.979,33.54,39.374,33.54,39.374"/>
<path fill="none" stroke="#0C0600" stroke-width="9.4975" stroke-miterlimit="10" d="M167.375,192.263
	c0,0-1.809,30.24,11.376,40.858"/>
<path fill="#0C0600" d="M182.906,168.441c0,0,31.462,0.1,31.562,13.159c-0.198,12.467-4.253,34.922,6.629,35.614
	c4.549-0.987,10.287,1.388,5.042-38.185c0.099-2.673,1.782-3.068,4.353-4.154c2.571-1.09,27.106-9.598,26.516-2.375
	c0,4.847,2.969,13.553-19.887,16.521c-0.596,0.397-1.385,2.574-0.097,8.014c0.392,5.44,6.129,27.193-11.973,28.976
	c-8.806,0.596-21.269-0.102-21.269-13.553c0.789-11.674,6.232-29.286-1.981-24.042C200.418,189.111,183.403,189.126,182.906,168.441
	z"/>
<path fill="none" stroke="#0A0500" stroke-width="9.4975" stroke-miterlimit="10" d="M190.228,280.206c0,0,9.351,3.859,10.835-8.309
	c-0.147-12.168-0.593-15.877-0.593-15.877"/>
<path fill="none" stroke="#0C0600" stroke-width="9.4975" stroke-miterlimit="10" d="M43.759,332.292
	c0,0,50.308-53.568,101.209-45.705c0,0,9.498-18.256,10.684-52.684c0.147-13.652,0.593-20.182,0.593-20.182"/>
<line fill="none" stroke="#0A0500" stroke-width="9.4975" stroke-linecap="round" stroke-miterlimit="10" x1="105.492" y1="272.041" x2="32.927" y2="312.261"/>
<line fill="none" stroke="#0C0600" stroke-width="9.4975" stroke-linecap="square" stroke-miterlimit="10" x1="15.415" y1="265.81" x2="56.078" y2="252.75"/>
<line fill="none" stroke="#0C0600" stroke-width="9.4975" stroke-linecap="square" stroke-miterlimit="10" x1="9.479" y1="236.578" x2="55.334" y2="236.132"/>
<path fill="none" stroke="#0C0600" stroke-width="9.4975" stroke-linecap="square" stroke-miterlimit="10" d="M74.776,225.891
	c10.982,0,19.884,8.905,19.884,19.887c0,10.982-8.902,19.887-19.884,19.887c-10.985,0-19.887-8.905-19.887-19.887
	C54.889,234.795,63.791,225.891,74.776,225.891z"/>
<path fill="#0A0500" d="M74.776,240.287c3.278,0,5.934,2.655,5.934,5.937c0,3.275-2.655,5.937-5.934,5.937s-5.937-2.661-5.937-5.937
	C68.839,242.942,71.498,240.287,74.776,240.287z"/>
<line fill="none" stroke="#0C0600" stroke-width="9.4975" stroke-linecap="round" stroke-miterlimit="10" x1="9.331" y1="211.498" x2="59.341" y2="211.052"/>
<line fill="none" stroke="#0C0600" stroke-width="9.4975" stroke-linecap="square" stroke-miterlimit="10" x1="10.815" y1="185.378" x2="55.632" y2="185.081"/>
<line fill="none" stroke="#0C0600" stroke-width="9.4975" stroke-linecap="square" stroke-miterlimit="10" x1="18.829" y1="155.701" x2="54.741" y2="168.61"/>
<circle fill="none" stroke="#0C0600" stroke-width="9.4975" stroke-linecap="square" stroke-miterlimit="10" cx="74.625" cy="173.952" r="20.331"/>
<circle fill="#0A0500" cx="74.625" cy="172.914" r="5.935"/>
<path fill="none" stroke="#0A0500" stroke-width="9.4975" stroke-miterlimit="10" d="M85.015,301.724
	c0,0,20.775,18.105,35.466,50.457c0.15,2.521,0,3.412,0,3.412s-23.151,17.955-34.874,23.893"/>
<path fill="none" stroke="#0A0500" stroke-width="9.4975" stroke-miterlimit="10" d="M104.751,368.208
	c0,0-34.575-38.438-43.631-51.347"/>
<polyline fill="none" stroke="#0A0500" stroke-width="9.4975" stroke-miterlimit="10" points="55.78,348.024 73.587,333.033 
	96.885,313.893 "/>
<line fill="none" stroke="#0A0500" stroke-width="9.4975" stroke-miterlimit="10" x1="72.548" y1="365.979" x2="88.576" y2="350.843"/>
<line fill="none" stroke="#0A0500" stroke-width="9.4975" stroke-miterlimit="10" x1="111.133" y1="335.261" x2="85.31" y2="348.321"/>
<path fill="none" stroke="#0A0500" stroke-width="9.4975" stroke-miterlimit="10" d="M101.93,292.964
	c0,0,30.126,27.311,35.171,50.016c0,0,1.93,15.431-14.098,60.697"/>
<line fill="none" stroke="#0A0500" stroke-width="9.4975" stroke-miterlimit="10" x1="126.565" y1="320.57" x2="149.568" y2="295.342"/>
<line fill="none" stroke="#0A0500" stroke-width="9.4975" stroke-miterlimit="10" x1="144.67" y1="288.81" x2="217.533" y2="336.742"/>
<path fill="none" stroke="#0A0500" stroke-width="9.4975" stroke-miterlimit="10" d="M145.411,284.51c0,0,1.189,15.727-2.965,18.846
	"/>
<polyline fill="none" stroke="#0A0500" stroke-width="9.4975" stroke-miterlimit="10" points="146.747,296.083 210.708,347.284 
	185.035,320.275 214.567,341.643 "/>
<line fill="none" stroke="#0A0500" stroke-width="9.4975" stroke-miterlimit="10" x1="278.377" y1="287.479" x2="204.922" y2="345.648"/>
<path fill="none" stroke="#0A0500" stroke-width="9.4975" stroke-miterlimit="10" d="M137.397,341.342c0,0,9.35-4.896,14.694-8.604
	c5.341-4.154,20.628-19.291,20.628-19.291"/>
<path fill="none" stroke="#0A0500" stroke-width="9.4975" stroke-miterlimit="10" d="M150.902,333.479l18.996,18.405l-23,20.328
	c0,0-10.389-1.633-18.551,16.322"/>
<polyline fill="none" stroke="#0A0500" stroke-width="9.4975" stroke-miterlimit="10" points="194.234,328.728 170.491,353.216 
	190.45,373.181 168.414,393.134 146.452,371.472 "/>
<path fill="none" stroke="#0A0500" stroke-width="9.4975" stroke-linecap="square" stroke-miterlimit="10" d="M150.161,413.468
	c0,0,14.543-19.889,18.996-20.334c4.748,5.197,23.891,24.338,23.891,24.338l-10.834-4.154"/>
<path fill="none" stroke="#0A0500" stroke-width="9.4975" stroke-linecap="square" stroke-miterlimit="10" d="M214.715,389.87
	c0,0-19.737,19.588-28.344,30.568"/>
<polyline fill="none" stroke="#0A0500" stroke-width="9.4975" stroke-linecap="square" stroke-miterlimit="10" points="
	234.304,371.177 217.385,390.317 250.476,422.962 "/>
<polyline fill="none" stroke="#0A0500" stroke-width="9.4975" stroke-linecap="square" stroke-miterlimit="10" points="
	213.23,351.583 195.421,370.874 214.862,388.979 "/>
<path fill="none" stroke="#0A0500" stroke-width="9.4975" stroke-linecap="square" stroke-miterlimit="10" d="M205.512,334.966
	c0,0,0.891,18.845,49.42,47.041c25.818,15.137,41.551,26.414,18.105,34.875"/>
<path fill="none" stroke="#0A0500" stroke-width="9.4975" stroke-linecap="square" stroke-miterlimit="10" d="M261.753,387.499
	c0,0-20.182,25.076-24.782,32.199"/>
<path fill="none" stroke="#0A0500" stroke-width="9.4975" stroke-linecap="square" stroke-miterlimit="10" d="M218.424,426.677
	c0,0,30.866-4.455,9.203-25.975"/>
<polyline fill="none" stroke="#0A0500" stroke-width="9.4975" stroke-linecap="round" stroke-miterlimit="10" points="
	314.732,401.745 298.71,385.421 246.768,343.275 "/>
<line fill="none" stroke="#0A0500" stroke-width="9.4975" stroke-linecap="square" stroke-miterlimit="10" x1="320.523" y1="363.903" x2="272.29" y2="324.875"/>
<path fill="none" stroke="#0A0500" stroke-width="9.4975" stroke-linecap="square" stroke-miterlimit="10" d="M331.506,390.763
	c0,0-5.641-11.873-15.432-20.479"/>
<line fill="none" stroke="#0A0500" stroke-width="9.4975" stroke-linecap="square" stroke-miterlimit="10" x1="360.594" y1="369.394" x2="339.815" y2="351.138"/>
<path fill="none" stroke="#0A0500" stroke-width="9.4975" stroke-miterlimit="10" d="M294.55,411.985c0,0-16.172-12.764,3.414-26.27
	c17.365-15.582,37.251-34.873,37.251-34.873l-42.146-41.255l19.736-21.964l21.369,18.406c0,0,6.979,10.681,25.824,25.078"/>
<path fill="none" stroke="#0A0500" stroke-width="9.4975" stroke-miterlimit="10" d="M373.352,317.602
	c0,0-5.936,7.417-34.578,33.241"/>
<line fill="none" stroke="#0A0500" stroke-width="9.4975" stroke-miterlimit="10" x1="359.998" y1="331.107" x2="380.775" y2="350.843"/>
<line fill="none" stroke="#0A0500" stroke-width="9.4975" stroke-miterlimit="10" x1="315.328" y1="330.511" x2="336.696" y2="309.292"/>
<path fill="none" stroke="#0A0500" stroke-width="9.4975" stroke-miterlimit="10" d="M289.359,286.738
	c0,0,23.596-6.382,34.133,2.962c13.945,7.123,24.632,10.242,69.301,39.623"/>
<line fill="none" stroke="#0A0500" stroke-width="9.4975" stroke-miterlimit="10" x1="371.124" y1="316.265" x2="393.239" y2="333.924"/>
<line fill="none" stroke="#0A0500" stroke-width="9.4975" stroke-miterlimit="10" x1="311.619" y1="286.335" x2="274.819" y2="286.726"/>
<path fill="none" stroke="#0C0600" stroke-width="9.4975" stroke-miterlimit="10" d="M267.1,255.267c0,0-1.782,18.202,9.104,33.242"
	/>
<line fill="none" stroke="#0A0500" stroke-width="9.4975" stroke-miterlimit="10" x1="329.23" y1="293.65" x2="335.167" y2="307.504"/>
<line fill="none" stroke="#0A0500" stroke-width="9.4975" stroke-linecap="round" stroke-miterlimit="10" x1="404.414" y1="312.249" x2="332.199" y2="272.276"/>
<line fill="none" stroke="#0C0600" stroke-width="9.4975" stroke-linecap="square" stroke-miterlimit="10" x1="420.641" y1="265.153" x2="381.463" y2="252.292"/>
<line fill="none" stroke="#0C0600" stroke-width="9.4975" stroke-linecap="square" stroke-miterlimit="10" x1="426.18" y1="235.687" x2="382.257" y2="235.687"/>
<path fill="none" stroke="#0C0600" stroke-width="9.4975" stroke-linecap="square" stroke-miterlimit="10" d="M362.074,225.186
	c11.361,0,20.58,9.212,20.58,20.58c0,11.361-9.219,20.58-20.58,20.58c-11.367,0-20.579-9.218-20.579-20.58
	C341.495,234.398,350.707,225.186,362.074,225.186z"/>
<path fill="#0A0500" d="M362.074,239.829c3.275,0,5.938,2.655,5.938,5.937c0,3.275-2.662,5.937-5.938,5.937
	s-5.936-2.661-5.936-5.937C356.139,242.484,358.799,239.829,362.074,239.829z"/>
<line fill="none" stroke="#0C0600" stroke-width="9.4975" stroke-linecap="square" stroke-miterlimit="10" x1="425.98" y1="211.145" x2="376.916" y2="210.946"/>
<line fill="none" stroke="#0C0600" stroke-width="9.4975" stroke-linecap="square" stroke-miterlimit="10" x1="424.006" y1="185.438" x2="380.872" y2="185.24"/>
<line fill="none" stroke="#0C0600" stroke-width="9.4975" stroke-linecap="square" stroke-miterlimit="10" x1="417.082" y1="155.758" x2="382.455" y2="168.026"/>
<path fill="none" stroke="#0C0600" stroke-width="9.4975" stroke-linecap="square" stroke-miterlimit="10" d="M362.074,154.374
	c10.82,0,19.586,8.77,19.586,19.589c0,10.816-8.766,19.586-19.586,19.586c-10.819,0-19.592-8.77-19.592-19.586
	C342.482,163.143,351.255,154.374,362.074,154.374z"/>
<path fill="#0A0500" d="M362.273,168.225c3.275,0,5.931,2.658,5.931,5.934c0,3.282-2.655,5.937-5.931,5.937
	c-3.281,0-5.937-2.655-5.937-5.937C356.337,170.883,358.992,168.225,362.273,168.225z"/>
<line fill="none" stroke="#0C0600" stroke-width="9.4975" stroke-linecap="square" stroke-miterlimit="10" x1="396.105" y1="110.442" x2="332.59" y2="147.245"/>
<line fill="none" stroke="#0C0600" stroke-width="9.4975" stroke-linecap="square" stroke-miterlimit="10" x1="369.197" y1="76.02" x2="316.568" y2="128.056"/>
<polyline fill="none" stroke="#0C0600" stroke-width="9.4975" stroke-linecap="square" stroke-miterlimit="10" points="
	336.154,46.339 326.063,70.478 300.342,113.021 "/>
<path fill="none" stroke="#0C0600" stroke-width="10.6847" stroke-linecap="square" stroke-miterlimit="10" d="M334.969,46.538
	c0,0-16.028,28.491,9.494,36.012c3.956,0.987,16.426,2.968,27.107-5.145"/>
<line fill="none" stroke="#0C0600" stroke-width="9.4975" stroke-linecap="square" stroke-miterlimit="10" x1="317.953" y1="36.251" x2="281.942" y2="102.337"/>
<line fill="none" stroke="#0C0600" stroke-width="9.4975" stroke-linecap="square" stroke-miterlimit="10" x1="275.21" y1="18.64" x2="257.406" y2="92.644"/>
<path fill="none" stroke="#0A0500" stroke-width="14.2462" stroke-miterlimit="10" d="M218.026,11.307
	c115.185,0,208.551,92.84,208.551,207.365c0,114.519-93.366,207.361-208.551,207.361c-115.178,0-208.548-92.842-208.548-207.361
	C9.479,104.147,102.849,11.307,218.026,11.307z"/>
</svg>
